<svg width="240" height="125" viewBox="0 0 240 125" fill="none" xmlns="http://www.w3.org/2000/svg">
<path d="M142.228 79.2279L199.661 78.6071M178.009 101.428L200.343 78.6002L177.553 56.2274" stroke="#FFFBFB" stroke-linecap="round" stroke-linejoin="round"/>
<path d="M98.2003 77.1152L26.7564 75.8415M98.2003 77.1152L74.8103 52.876M98.2003 77.1152L73.9612 100.505" stroke="#FFFBFB" stroke-width="2" stroke-linecap="round" stroke-linejoin="round"/>
<path d="M23.8 8H32.2C35.4 8 38 10.6 38 13.8V22.2C38 23.7383 37.3889 25.2135 36.3012 26.3012C35.2135 27.3889 33.7383 28 32.2 28H23.8C20.6 28 18 25.4 18 22.2V13.8C18 12.2617 18.6111 10.7865 19.6988 9.69878C20.7865 8.61107 22.2617 8 23.8 8ZM23.6 10C22.6452 10 21.7295 10.3793 21.0544 11.0544C20.3793 11.7295 20 12.6452 20 13.6V22.4C20 24.39 21.61 26 23.6 26H32.4C33.3548 26 34.2705 25.6207 34.9456 24.9456C35.6207 24.2705 36 23.3548 36 22.4V13.6C36 11.61 34.39 10 32.4 10H23.6ZM33.25 11.5C33.5815 11.5 33.8995 11.6317 34.1339 11.8661C34.3683 12.1005 34.5 12.4185 34.5 12.75C34.5 13.0815 34.3683 13.3995 34.1339 13.6339C33.8995 13.8683 33.5815 14 33.25 14C32.9185 14 32.6005 13.8683 32.3661 13.6339C32.1317 13.3995 32 13.0815 32 12.75C32 12.4185 32.1317 12.1005 32.3661 11.8661C32.6005 11.6317 32.9185 11.5 33.25 11.5ZM28 13C29.3261 13 30.5979 13.5268 31.5355 14.4645C32.4732 15.4021 33 16.6739 33 18C33 19.3261 32.4732 20.5979 31.5355 21.5355C30.5979 22.4732 29.3261 23 28 23C26.6739 23 25.4021 22.4732 24.4645 21.5355C23.5268 20.5979 23 19.3261 23 18C23 16.6739 23.5268 15.4021 24.4645 14.4645C25.4021 13.5268 26.6739 13 28 13ZM28 15C27.2044 15 26.4413 15.3161 25.8787 15.8787C25.3161 16.4413 25 17.2044 25 18C25 18.7956 25.3161 19.5587 25.8787 20.1213C26.4413 20.6839 27.2044 21 28 21C28.7956 21 29.5587 20.6839 30.1213 20.1213C30.6839 19.5587 31 18.7956 31 18C31 17.2044 30.6839 16.4413 30.1213 15.8787C29.5587 15.3161 28.7956 15 28 15Z" fill="#FFFBFB"/>
<path d="M95.46 10C94.69 10.35 93.86 10.58 93 10.69C93.88 10.16 94.56 9.32 94.88 8.31C94.05 8.81 93.13 9.16 92.16 9.36C91.37 8.5 90.26 8 89 8C86.65 8 84.73 9.92 84.73 12.29C84.73 12.63 84.77 12.96 84.84 13.27C81.28 13.09 78.11 11.38 76 8.79C75.63 9.42 75.42 10.16 75.42 10.94C75.42 12.43 76.17 13.75 77.33 14.5C76.62 14.5 75.96 14.3 75.38 14V14.03C75.38 16.11 76.86 17.85 78.82 18.24C78.1908 18.4129 77.53 18.4369 76.89 18.31C77.1616 19.1625 77.6935 19.9084 78.411 20.4429C79.1285 20.9775 79.9955 21.2737 80.89 21.29C79.3737 22.4905 77.494 23.1394 75.56 23.13C75.22 23.13 74.88 23.11 74.54 23.07C76.44 24.29 78.7 25 81.12 25C89 25 93.33 18.46 93.33 12.79C93.33 12.6 93.33 12.42 93.32 12.23C94.16 11.63 94.88 10.87 95.46 10Z" fill="#FFFBFB"/>
<path d="M144 19.5H146.5L147.5 15.5H144V13.5C144 12.47 144 11.5 146 11.5H147.5V8.14C147.174 8.097 145.943 8 144.643 8C141.928 8 140 9.657 140 12.7V15.5H137V19.5H140V28H144V19.5Z" fill="#FFFBFB"/>
<path fill-rule="evenodd" clip-rule="evenodd" d="M199.51 16.796V18.493C199.865 17.9517 200.355 17.5119 200.932 17.2167C201.508 16.9215 202.151 16.781 202.798 16.809C206.253 16.809 207 18.969 207 21.779V27.5H203.8V22.428C203.8 21.218 203.556 19.662 201.672 19.662C199.845 19.662 199.533 20.979 199.533 22.338V27.5H196.343V16.796H199.51ZM194.2 14.106C194.2 14.423 194.106 14.7328 193.93 14.9967C193.754 15.2605 193.504 15.4665 193.212 15.589C192.92 15.7105 192.598 15.7423 192.288 15.6803C191.977 15.6183 191.692 15.4654 191.469 15.241C191.245 15.0165 191.093 14.7308 191.031 14.42C190.97 14.1091 191.001 13.787 191.122 13.494C191.243 13.2011 191.448 12.9504 191.711 12.7735C191.974 12.5967 192.283 12.5015 192.6 12.5C192.811 12.5 193.019 12.5416 193.214 12.6224C193.408 12.7031 193.585 12.8215 193.733 12.9707C193.882 13.12 194 13.297 194.08 13.4919C194.16 13.6867 194.201 13.8954 194.2 14.106Z" fill="#FFFBFB"/>
<path d="M194.2 16.809H191V27.5H194.2V16.809Z" fill="#FFFBFB"/>
</svg>
