<svg width="48" height="48" viewBox="0 0 48 48" fill="none" xmlns="http://www.w3.org/2000/svg">
<path d="M34.625 30.5001H32.4525L31.6825 29.7576C33.4011 27.761 34.6572 25.4092 35.3608 22.8705C36.0644 20.3318 36.1981 17.669 35.7525 15.0726C34.46 7.42755 28.08 1.32255 20.38 0.387553C17.6729 0.0450836 14.9234 0.326425 12.3418 1.21005C9.76021 2.09367 7.41496 3.55615 5.48553 5.48559C3.55609 7.41502 2.09361 9.76027 1.20999 12.3419C0.326364 14.9235 0.0450226 17.673 0.387492 20.3801C1.32249 28.0801 7.42749 34.4601 15.0725 35.7526C17.6689 36.1982 20.3317 36.0644 22.8704 35.3608C25.4091 34.6572 27.7609 33.4012 29.7575 31.6826L30.5 32.4526V34.6251L42.1875 46.3126C43.315 47.4401 45.1575 47.4401 46.285 46.3126C47.4125 45.1851 47.4125 43.3426 46.285 42.2151L34.625 30.5001ZM18.125 30.5001C11.2775 30.5001 5.74999 24.9726 5.74999 18.1251C5.74999 11.2776 11.2775 5.75005 18.125 5.75005C24.9725 5.75005 30.5 11.2776 30.5 18.1251C30.5 24.9726 24.9725 30.5001 18.125 30.5001Z" fill="#100F0F"/>
</svg>
